<?xml version="1.0" standalone="no"?>
<!DOCTYPE svg PUBLIC "-//W3C//DTD SVG 20010904//EN"
 "http://www.w3.org/TR/2001/REC-SVG-20010904/DTD/svg10.dtd">
<svg version="1.0" xmlns="http://www.w3.org/2000/svg"
 width="1280.000000pt" height="1280.000000pt" viewBox="0 0 1280.000000 1280.000000"
 preserveAspectRatio="xMidYMid meet">
<metadata>
Created by potrace 1.15, written by Peter Selinger 2001-2017
</metadata>
<g transform="translate(0.000000,1280.000000) scale(0.100000,-0.100000)"
fill="#000000" stroke="none">
<path d="M6400 10655 c-7 -8 -16 -53 -21 -100 -19 -186 -105 -450 -272 -837
-114 -263 -380 -613 -621 -815 -276 -232 -551 -345 -896 -368 -72 -5 -110 -12
-122 -23 -24 -21 -24 -93 0 -115 29 -27 279 -143 387 -180 220 -76 261 -82
551 -82 l261 0 -91 -105 c-117 -135 -412 -430 -541 -541 -122 -105 -231 -183
-395 -281 -356 -214 -692 -342 -1055 -403 -165 -27 -175 -33 -175 -97 0 -29 7
-45 26 -63 41 -38 406 -217 537 -263 218 -77 380 -111 571 -121 l129 -6 -54
-67 c-277 -344 -481 -531 -764 -703 -208 -126 -473 -243 -735 -325 -74 -23
-141 -48 -149 -55 -35 -34 -1 -98 79 -150 112 -71 382 -127 730 -150 149 -10
532 19 723 56 28 5 52 7 54 5 7 -7 -87 -167 -151 -256 -74 -104 -262 -299
-385 -400 -142 -116 -315 -234 -441 -299 -282 -145 -654 -285 -965 -361 -71
-18 -135 -37 -141 -42 -30 -23 -24 -112 8 -129 11 -6 76 -22 146 -37 125 -27
132 -27 522 -27 416 0 519 8 825 64 55 10 101 18 102 17 1 -1 -39 -35 -89 -76
-115 -96 -322 -308 -420 -430 -114 -142 -218 -292 -218 -313 0 -21 28 -79 44
-89 26 -18 67 -4 161 52 221 132 572 292 917 419 181 66 498 164 506 157 2 -3
-13 -27 -36 -53 -159 -191 -329 -525 -320 -631 2 -27 10 -40 30 -51 26 -15 29
-14 75 19 407 293 718 434 1024 465 l66 6 11 -56 c6 -31 25 -169 42 -308 38
-315 39 -319 70 -333 29 -14 286 -29 791 -46 390 -13 401 -12 440 43 35 50 58
171 69 358 5 97 10 184 10 194 0 15 13 17 125 17 300 0 762 -78 1344 -226 225
-57 256 -63 280 -51 23 11 26 19 25 58 0 70 -65 152 -303 388 l-205 204 59 -8
c128 -15 348 -66 442 -101 116 -43 284 -116 481 -208 91 -43 153 -66 170 -64
33 4 58 44 49 80 -7 28 -123 182 -355 473 -88 110 -159 201 -158 202 1 2 43
-2 92 -8 151 -19 387 2 628 56 155 35 378 103 398 122 21 19 24 91 6 115 -15
19 -245 100 -451 159 -385 110 -717 283 -1008 527 -96 81 -313 301 -305 309 3
3 44 -7 93 -20 374 -108 702 -165 1066 -188 168 -10 189 -10 212 5 50 33 42
102 -18 144 -18 12 -71 36 -118 53 -189 69 -525 290 -785 516 -300 261 -591
591 -852 965 -64 93 -118 172 -120 178 -2 5 55 -11 127 -35 281 -94 562 -153
766 -162 180 -7 471 27 498 58 19 23 23 89 7 118 -5 10 -47 38 -92 61 -254
129 -578 365 -973 709 -148 129 -530 511 -646 646 -111 129 -279 337 -279 346
0 3 37 0 83 -7 302 -48 649 -58 820 -23 56 11 110 28 119 36 13 11 18 31 18
65 0 43 -3 51 -27 64 -247 134 -424 248 -593 382 -125 100 -434 410 -540 541
-296 369 -551 812 -745 1296 -27 66 -55 128 -63 138 -19 22 -104 24 -122 2z
m159 -1181 c35 -29 41 -75 15 -112 -20 -29 -81 -30 -116 -3 -34 27 -27 81 14
116 37 31 49 31 87 -1z m339 -800 c31 -21 31 -95 1 -125 -17 -17 -28 -20 -62
-15 -23 4 -47 12 -54 18 -19 15 -16 98 4 120 20 22 80 24 111 2z m-937 -54
c10 -6 26 -24 34 -40 18 -34 9 -62 -29 -92 -47 -39 -116 -3 -116 60 0 63 57
100 111 72z m586 -662 c31 -29 29 -64 -6 -99 -34 -33 -79 -39 -103 -11 -26 28
-32 79 -14 107 22 34 89 35 123 3z m793 -348 c22 -22 27 -78 10 -110 -22 -40
-117 -34 -140 10 -13 24 -3 85 17 105 22 22 89 19 113 -5z m-1465 -215 c29
-29 33 -79 8 -107 -18 -20 -82 -25 -114 -8 -29 16 -27 103 3 124 33 23 75 20
103 -9z m994 -291 c26 -21 31 -33 31 -68 0 -50 -15 -72 -52 -82 -23 -5 -34 0
-64 30 -31 31 -36 41 -30 68 7 38 42 78 67 78 10 0 31 -12 48 -26z m-1769
-180 c8 -8 13 -36 13 -61 -1 -54 -19 -73 -69 -73 -26 0 -39 8 -58 33 -31 41
-33 70 -6 97 25 25 101 28 120 4z m2485 -379 c34 -33 31 -65 -9 -104 -30 -29
-37 -31 -67 -24 -54 15 -76 78 -43 128 23 35 85 35 119 0z m-1183 -12 c13 -11
18 -30 18 -64 0 -43 -3 -50 -29 -64 -54 -27 -121 19 -121 84 0 48 93 79 132
44z m-617 -563 c9 -8 15 -30 15 -55 0 -35 -5 -48 -26 -64 -32 -25 -81 -27
-106 -4 -28 25 -25 107 5 128 25 18 88 15 112 -5z m1316 -221 c53 -56 27 -129
-45 -129 -52 0 -81 29 -77 76 3 43 15 62 46 74 34 14 46 11 76 -21z m-2255
-193 c15 -11 19 -25 17 -61 -2 -62 -15 -75 -74 -75 -58 0 -79 18 -79 68 0 57
23 82 74 82 23 0 51 -6 62 -14z m3368 -8 c23 -32 20 -62 -10 -97 -49 -58 -124
-33 -124 41 0 60 17 78 72 78 37 0 50 -5 62 -22z m-1765 -447 c9 -6 15 -27 15
-56 1 -40 -3 -51 -25 -67 -24 -18 -31 -19 -63 -8 -64 21 -81 74 -38 123 16 18
86 24 111 8z m-1238 -331 c10 -6 26 -25 35 -42 15 -28 15 -34 -2 -70 -23 -52
-52 -58 -104 -24 -31 20 -40 33 -40 54 0 29 23 63 55 80 25 14 32 14 56 2z
m2343 4 c9 -3 25 -21 36 -39 17 -27 18 -38 9 -61 -14 -38 -38 -64 -58 -64 -9
0 -33 11 -54 25 -49 34 -51 74 -6 116 32 29 45 34 73 23z m-2915 -665 c20 -7
33 -20 37 -35 10 -39 -5 -93 -28 -105 -28 -15 -99 -4 -116 18 -19 26 -9 93 18
115 26 21 45 22 89 7z m2014 -47 c22 -19 22 -79 0 -104 -24 -27 -97 -25 -117
4 -31 43 -18 87 33 121 25 17 46 12 84 -21z m1674 -187 c29 -29 34 -40 28 -63
-9 -37 -25 -52 -67 -58 -54 -9 -88 17 -88 68 0 28 7 46 25 63 33 34 61 31 102
-10z m-2794 -53 c22 -20 23 -89 0 -114 -31 -34 -118 -15 -129 29 -10 38 5 72
39 93 34 21 60 19 90 -8z m1908 -245 c27 -18 35 -30 37 -61 4 -50 -19 -76 -67
-76 -55 0 -81 23 -81 71 0 29 7 47 25 64 30 31 43 31 86 2z"/>
</g>
</svg>
